<svg width="32" height="32" viewBox="0 0 32 32" fill="none" xmlns="http://www.w3.org/2000/svg">
<g clip-path="url(#clip0_1_14)">
<path fill-rule="evenodd" clip-rule="evenodd" d="M16 0C7.16022 0 0 7.16022 0 16C0 23.0718 4.58686 29.0632 10.9417 31.1848C11.7373 31.3321 12.0319 30.841 12.0319 30.4088C12.0319 30.0258 12.0221 29.0239 12.0123 27.6882C7.56292 28.6507 6.62001 25.547 6.62001 25.547C5.89319 23.7004 4.84223 23.1995 4.84223 23.1995C3.38858 22.2075 4.95028 22.2271 4.95028 22.2271C6.55126 22.345 7.40577 23.8772 7.40577 23.8772C8.82996 26.3229 11.1479 25.6157 12.0614 25.2032C12.2087 24.1719 12.6212 23.4647 13.0731 23.062C9.52732 22.6691 5.79497 21.294 5.79497 15.1651C5.79497 13.4168 6.41375 11.9926 7.44506 10.8729C7.27808 10.4604 6.72805 8.83978 7.59239 6.63966C7.59239 6.63966 8.938 6.20749 11.9926 8.27993C13.2695 7.92633 14.6347 7.74954 16 7.73972C17.3554 7.74954 18.7305 7.92633 20.0074 8.27993C23.062 6.20749 24.4076 6.63966 24.4076 6.63966C25.2818 8.83978 24.7317 10.4702 24.5648 10.8729C25.5862 11.9926 26.205 13.4168 26.205 15.1651C26.205 21.3137 22.4629 22.6593 18.8975 23.062C19.4672 23.5531 19.9877 24.5353 19.9877 26.0282C19.9877 28.1694 19.9681 29.8883 19.9681 30.4187C19.9681 30.8508 20.2529 31.3419 21.0681 31.1848C27.423 29.0632 32 23.0718 32 16.0098C32 7.16022 24.8398 0 16 0Z" fill="#231E1B"/>
</g>
<defs>
<clipPath id="clip0_1_14">
<rect width="32" height="31.2044" fill="white"/>
</clipPath>
</defs>
</svg>
